<?xml version="1.0" standalone="no"?>
<!DOCTYPE svg PUBLIC "-//W3C//DTD SVG 20010904//EN"
 "http://www.w3.org/TR/2001/REC-SVG-20010904/DTD/svg10.dtd">
<svg version="1.0" xmlns="http://www.w3.org/2000/svg"
 width="512.000000pt" height="512.000000pt" viewBox="0 0 512.000000 512.000000"
 preserveAspectRatio="xMidYMid meet">

<g transform="translate(0.000000,512.000000) scale(0.100000,-0.100000)"
fill="#000000" stroke="none">
<path d="M1125 5104 c-34 -17 -621 -597 -666 -658 -21 -28 -29 -50 -29 -79 0
-40 6 -47 238 -278 154 -154 247 -240 265 -245 36 -8 70 1 105 30 l29 25 84
-85 84 -84 -403 -403 -402 -403 0 -1285 c0 -1236 1 -1288 19 -1341 50 -145
163 -250 306 -284 90 -21 3520 -21 3610 0 143 34 256 139 306 284 18 53 19
121 19 2262 0 2141 -1 2209 -19 2262 -36 104 -108 192 -199 243 -98 55 -98 55
-995 55 -585 0 -835 -3 -850 -11 -12 -6 -200 -188 -417 -405 l-395 -394 -84
84 -84 84 26 33 c25 34 30 52 28 99 -1 17 -63 86 -228 253 -126 126 -240 235
-255 243 -34 18 -56 18 -93 -2z m3225 -215 c46 -21 89 -65 111 -114 18 -38 19
-126 19 -2215 0 -2085 -1 -2177 -19 -2215 -23 -51 -74 -101 -120 -117 -53 -19
-3509 -19 -3562 0 -46 16 -97 66 -120 117 -18 38 -19 100 -19 1265 l0 1225
1038 1038 1037 1037 800 -2 c711 -3 804 -5 835 -19z m-3145 -549 l-245 -245
-137 138 -138 137 245 245 245 245 137 -137 138 -138 -245 -245z m323 -317
l-138 -138 -85 85 -85 85 137 137 138 138 85 -85 85 -85 -137 -137z"/>
<path d="M2493 4348 c-230 -230 -346 -353 -353 -374 -9 -25 -8 -40 4 -67 29
-70 -17 -67 899 -67 515 0 844 4 878 10 214 40 370 257 338 470 -11 75 -22
110 -53 163 -38 65 -116 134 -194 170 l-67 32 -554 3 -555 3 -343 -343z m1410
121 c21 -6 56 -26 77 -45 108 -98 87 -272 -40 -344 l-45 -25 -700 -3 -700 -2
215 215 215 215 470 0 c300 0 484 -4 508 -11z"/>
<path d="M1363 2982 c-29 -4 -71 -45 -79 -76 -13 -54 5 -79 217 -291 l209
-211 0 -484 0 -484 -209 -211 c-212 -212 -230 -237 -217 -291 8 -31 48 -70 79
-76 53 -10 82 11 287 217 l205 205 705 0 705 0 205 -205 c205 -206 234 -227
287 -217 31 6 71 45 79 76 13 54 -5 79 -217 291 l-209 211 0 484 0 484 209
211 c212 212 230 237 217 291 -8 31 -48 70 -79 76 -53 10 -82 -11 -287 -217
l-205 -205 -705 0 -705 0 -205 205 c-204 204 -233 226 -287 217z m1837 -1062
l0 -430 -640 0 -640 0 0 430 0 430 640 0 640 0 0 -430z"/>
</g>
</svg>
