<?xml version="1.0" standalone="no"?>
<!DOCTYPE svg PUBLIC "-//W3C//DTD SVG 20010904//EN"
 "http://www.w3.org/TR/2001/REC-SVG-20010904/DTD/svg10.dtd">
<svg version="1.0" xmlns="http://www.w3.org/2000/svg"
 width="512.000000pt" height="512.000000pt" viewBox="0 0 512.000000 512.000000"
 preserveAspectRatio="xMidYMid meet">

<g transform="translate(0.000000,512.000000) scale(0.100000,-0.100000)"
fill="#000000" stroke="none">
<path d="M1398 5064 c-34 -18 -58 -62 -58 -108 0 -45 39 -92 88 -106 20 -5
142 -10 270 -10 l233 0 -3 -152 -3 -153 -262 -5 -263 -5 -27 -28 c-28 -27 -28
-28 -31 -182 l-3 -155 -230 0 c-185 0 -236 -3 -259 -15 -61 -32 -60 -21 -60
-457 l0 -398 -145 0 -145 0 0 368 c0 202 -5 385 -10 407 -10 43 -46 81 -86 91
-42 11 -103 -13 -124 -49 -19 -31 -20 -58 -20 -950 0 -1016 -4 -959 66 -992
72 -34 154 11 168 92 3 21 6 208 6 416 l0 378 143 -3 142 -3 3 -408 c2 -440 2
-439 56 -470 15 -9 174 -13 601 -17 l579 -5 197 -240 c108 -132 211 -250 229
-263 27 -18 47 -22 106 -22 l74 0 0 -31 c0 -21 -11 -46 -34 -73 -95 -117 -144
-241 -153 -387 -12 -195 52 -356 196 -499 134 -133 270 -190 456 -190 187 0
321 56 456 190 144 143 208 304 196 499 -9 147 -48 249 -143 373 -30 38 -44
66 -44 87 l0 31 141 0 c152 0 197 11 222 54 8 15 14 114 17 331 l5 310 103 3
102 3 0 -172 c0 -260 -1 -259 300 -259 284 0 270 -10 354 248 199 610 203
1197 10 1695 -50 131 -87 192 -129 211 -30 15 -66 17 -251 14 l-216 -3 -34
-37 -34 -38 0 -155 0 -155 -105 0 -105 0 0 200 c0 160 -3 207 -15 230 -30 57
-46 60 -355 60 l-280 0 0 151 0 151 -34 34 -34 34 -296 0 -296 0 0 155 0 155
219 0 c120 0 233 3 250 6 39 8 87 54 94 90 8 41 -11 90 -44 118 l-31 26 -846
0 c-730 -1 -851 -3 -874 -16z m990 -376 l-3 -153 -110 0 -110 0 -3 153 -3 152
116 0 116 0 -3 -152z m663 -536 c6 -236 -1 -232 378 -232 l269 0 4 -197 c6
-292 1 -287 266 -291 l182 -4 0 -219 c0 -177 3 -226 15 -249 30 -59 119 -79
170 -38 54 42 55 53 55 493 l0 406 87 -3 87 -3 29 -68 c61 -147 109 -386 122
-612 16 -259 -49 -680 -148 -960 l-14 -40 -81 -3 -80 -3 -4 173 c-5 262 7 253
-342 253 -363 0 -340 27 -344 -392 l-3 -303 -70 0 -69 0 0 464 c0 266 -4 486
-10 517 -17 90 -72 190 -141 253 -69 64 -114 90 -196 111 -253 66 -507 -89
-568 -346 -12 -52 -15 -150 -15 -531 l0 -468 -32 0 c-31 0 -47 17 -238 251
-112 138 -216 257 -232 265 -22 12 -120 14 -568 14 l-540 0 0 765 0 765 225 0
c329 0 328 0 333 232 l4 148 733 0 733 0 3 -148z m156 -1202 c36 -21 61 -44
80 -77 l28 -48 5 -686 5 -687 58 -61 c34 -36 71 -88 90 -128 30 -63 32 -75 32
-173 0 -100 -2 -109 -34 -175 -44 -89 -113 -157 -199 -198 -63 -30 -74 -32
-177 -32 -103 0 -114 2 -178 32 -85 40 -155 111 -199 200 -31 64 -33 74 -33
173 0 97 2 110 31 170 17 37 57 94 90 129 l59 64 5 686 5 686 28 48 c40 67
111 107 192 107 48 0 70 -6 112 -30z"/>
<path d="M3029 2677 c-19 -13 -39 -38 -46 -57 -9 -26 -12 -202 -12 -656 l-1
-621 -40 -28 c-22 -15 -53 -48 -69 -72 -129 -195 26 -451 260 -430 186 17 305
222 225 392 -21 46 -105 135 -127 135 -5 0 -9 286 -9 635 0 698 2 678 -60 710
-41 21 -82 19 -121 -8z"/>
<path d="M3940 1078 c-1 -26 -20 -163 -25 -179 -5 -14 13 -21 105 -44 64 -16
115 -24 120 -19 13 14 30 121 30 191 l0 63 -115 0 c-85 0 -115 -3 -115 -12z"/>
<path d="M2195 1033 c-27 -2 -79 -5 -114 -9 l-64 -6 7 -60 c6 -65 33 -179 45
-191 6 -6 206 55 218 66 2 2 -3 33 -12 68 -8 35 -15 78 -15 96 0 38 -1 39 -65
36z"/>
<path d="M3704 508 c-16 -17 -50 -48 -76 -68 l-47 -38 66 -93 c36 -52 68 -96
69 -98 9 -11 194 155 194 175 0 8 -137 130 -166 147 -6 3 -24 -8 -40 -25z"/>
<path d="M2402 417 l-83 -84 53 -45 c29 -25 76 -61 105 -82 l51 -37 57 92 c70
114 71 115 46 128 -11 6 -47 34 -80 61 -33 28 -62 50 -63 50 -2 0 -41 -37 -86
-83z"/>
<path d="M3113 253 c-106 -4 -97 7 -109 -147 l-7 -99 127 5 c69 3 129 7 132
11 10 10 -29 237 -40 235 -6 -1 -52 -4 -103 -5z"/>
</g>
</svg>
