<?xml version="1.0" standalone="no"?>
<!DOCTYPE svg PUBLIC "-//W3C//DTD SVG 20010904//EN"
 "http://www.w3.org/TR/2001/REC-SVG-20010904/DTD/svg10.dtd">
<svg version="1.0" xmlns="http://www.w3.org/2000/svg"
 width="512.000000pt" height="512.000000pt" viewBox="0 0 512.000000 512.000000"
 preserveAspectRatio="xMidYMid meet">

<g transform="translate(0.000000,512.000000) scale(0.100000,-0.100000)"
fill="#000000" stroke="none">
<path d="M2429 4811 c-261 -84 -379 -403 -396 -1071 -10 -418 33 -834 123
-1193 l25 -98 -55 -54 c-96 -95 -146 -183 -176 -310 l-17 -69 -54 -14 c-272
-66 -710 -252 -1039 -440 -359 -205 -674 -462 -777 -633 -131 -220 -48 -492
185 -602 64 -31 72 -32 187 -31 98 0 138 5 220 28 461 126 1133 533 1552 940
l103 99 77 -23 c107 -32 239 -32 345 0 l78 23 107 -104 c316 -305 802 -630
1218 -814 349 -154 580 -191 737 -118 233 109 316 380 185 603 -45 77 -242
271 -377 372 -336 251 -827 503 -1245 641 -77 25 -164 52 -194 59 l-53 14 -19
72 c-33 132 -80 213 -176 307 l-54 54 30 123 c89 367 128 751 118 1168 -17
676 -138 996 -406 1074 -71 21 -182 19 -252 -3z m202 -327 c49 -47 105 -267
129 -504 16 -156 13 -569 -5 -755 -18 -184 -54 -418 -88 -555 l-23 -95 -84 0
-84 0 -13 50 c-42 164 -84 424 -103 650 -14 158 -14 563 0 706 22 223 77 446
124 498 43 48 100 50 147 5z m78 -2270 c182 -99 215 -351 64 -496 -59 -57
-124 -83 -213 -83 -89 0 -154 26 -213 83 -140 135 -123 375 32 478 66 44 109
55 196 51 66 -3 90 -8 134 -33z m-708 -556 c12 -24 31 -56 42 -71 l20 -29 -83
-76 c-289 -266 -615 -493 -965 -672 -233 -119 -460 -199 -578 -203 -55 -2 -61
0 -88 31 -36 40 -39 95 -7 138 200 268 773 622 1346 833 101 37 264 89 284 90
4 1 17 -18 29 -41z m1322 -12 c503 -166 1045 -465 1326 -731 157 -148 183
-209 122 -277 -27 -31 -33 -33 -88 -31 -119 4 -346 84 -578 203 -350 179 -676
406 -965 672 l-83 76 20 29 c11 15 30 47 42 71 12 23 26 42 32 42 5 0 83 -24
172 -54z"/>
</g>
</svg>
