<svg cache-id="8f9e6c5d8dea40ac80be6f403af536dd" id="eVLK4ihpST21" xmlns="http://www.w3.org/2000/svg" xmlns:xlink="http://www.w3.org/1999/xlink" viewBox="0 0 72 72" shape-rendering="geometricPrecision" text-rendering="geometricPrecision"><ellipse rx="7.2" ry="7.2" transform="translate(17.002868 8.972975)" fill="#e41303" stroke-width="0"/><ellipse rx="7.2" ry="7.2" transform="translate(111.052649 31.268427)" fill="#d2dbed" stroke-width="0"/><rect width="16.674265" height="15.891899" rx="0" ry="0" transform="translate(27.665736 1.027026)" fill="#3eca32" stroke-width="0"/><rect width="16.674265" height="15.891899" rx="0" ry="0" transform="translate(27.662868 18.972976)" fill="#3eca32" stroke-width="0"/><rect width="16.674265" height="15.891899" rx="0" ry="0" transform="translate(27.662868 37.441403)" fill="#3eca32" stroke-width="0"/><rect width="16.674265" height="15.891899" rx="0" ry="0" transform="translate(46.662868 37.441403)" fill="#3eca32" stroke-width="0"/><rect width="16.674265" height="15.891899" rx="0" ry="0" transform="translate(8.665736 55.081076)" fill="#3eca32" stroke-width="0"/><rect width="16.674265" height="15.891899" rx="0" ry="0" transform="translate(46.662868 1.027026)" fill="#3eca32" stroke-width="0"/><rect width="16.674265" height="15.891899" rx="0" ry="0" transform="translate(8.662868 18.972976)" fill="#3eca32" stroke-width="0"/><rect width="16.674265" height="15.891899" rx="0" ry="0" transform="translate(8.665736 37.441403)" fill="#3eca32" stroke-width="0"/><rect width="16.674265" height="15.891899" rx="0" ry="0" transform="translate(27.662868 55.081076)" fill="#3eca32" stroke-width="0"/></svg>